<?xml version="1.0" encoding="UTF-8"?>
<svg xmlns="http://www.w3.org/2000/svg" xmlns:xlink="http://www.w3.org/1999/xlink" width="256px" height="256px" viewBox="0 0 256 256" version="1.1">
<g id="surface1">
<path style=" stroke:none;fill-rule:nonzero;fill:rgb(100%,100%,100%);fill-opacity:1;" d="M 0 4 C 0 1.789062 1.789062 0 4 0 L 252 0 C 254.210938 0 256 1.789062 256 4 L 256 252 C 256 254.210938 254.210938 256 252 256 L 4 256 C 1.789062 256 0 254.210938 0 252 Z M 0 4 "/>
<path style="fill:none;stroke-width:1;stroke-linecap:butt;stroke-linejoin:miter;stroke:rgb(0%,0%,0%);stroke-opacity:1;stroke-miterlimit:4;" d="M 3.999985 4.500092 L 10.999741 4.500092 M 11.999954 4.500092 L 13.000168 4.500092 M 15.999939 4.500092 L 18.99971 4.500092 M 22.000351 4.500092 L 23.999908 4.500092 M 25.000122 4.500092 L 26.99968 4.500092 M 27.999893 4.500092 L 29.000107 4.500092 M 30.00032 4.500092 L 33.000092 4.500092 M 35.999863 4.500092 L 38.999634 4.500092 M 41.000061 4.500092 L 42.000275 4.500092 M 43.999832 4.500092 L 45.000046 4.500092 M 46.000259 4.500092 L 53.000015 4.500092 M 3.999985 5.500305 L 5.000198 5.500305 M 10.000397 5.500305 L 10.999741 5.500305 M 14.999725 5.500305 L 18.99971 5.500305 M 19.999924 5.500305 L 21.000137 5.500305 M 22.000351 5.500305 L 22.999695 5.500305 M 23.999908 5.500305 L 26.000336 5.500305 M 29.000107 5.500305 L 31.999878 5.500305 M 38.00029 5.500305 L 38.999634 5.500305 M 39.999847 5.500305 L 41.000061 5.500305 M 42.000275 5.500305 L 45.000046 5.500305 M 46.000259 5.500305 L 46.999603 5.500305 M 51.999802 5.500305 L 53.000015 5.500305 M 3.999985 6.499649 L 5.000198 6.499649 M 6.000412 6.499649 L 9.000183 6.499649 M 10.000397 6.499649 L 10.999741 6.499649 M 11.999954 6.499649 L 13.000168 6.499649 M 14.999725 6.499649 L 18.000366 6.499649 M 18.99971 6.499649 L 22.000351 6.499649 M 22.999695 6.499649 L 23.999908 6.499649 M 26.99968 6.499649 L 30.00032 6.499649 M 30.999664 6.499649 L 33.000092 6.499649 M 34.000305 6.499649 L 34.999649 6.499649 M 35.999863 6.499649 L 37.000076 6.499649 M 38.00029 6.499649 L 38.999634 6.499649 M 42.999619 6.499649 L 45.000046 6.499649 M 46.000259 6.499649 L 46.999603 6.499649 M 47.999817 6.499649 L 50.999588 6.499649 M 51.999802 6.499649 L 53.000015 6.499649 M 3.999985 7.499863 L 5.000198 7.499863 M 6.000412 7.499863 L 9.000183 7.499863 M 10.000397 7.499863 L 10.999741 7.499863 M 13.000168 7.499863 L 15.999939 7.499863 M 17.000153 7.499863 L 19.999924 7.499863 M 21.000137 7.499863 L 22.000351 7.499863 M 22.999695 7.499863 L 23.999908 7.499863 M 26.000336 7.499863 L 26.99968 7.499863 M 29.000107 7.499863 L 30.00032 7.499863 M 34.000305 7.499863 L 34.999649 7.499863 M 35.999863 7.499863 L 41.000061 7.499863 M 42.999619 7.499863 L 43.999832 7.499863 M 46.000259 7.499863 L 46.999603 7.499863 M 47.999817 7.499863 L 50.999588 7.499863 M 51.999802 7.499863 L 53.000015 7.499863 M 3.999985 8.500076 L 5.000198 8.500076 M 6.000412 8.500076 L 9.000183 8.500076 M 10.000397 8.500076 L 10.999741 8.500076 M 11.999954 8.500076 L 13.000168 8.500076 M 15.999939 8.500076 L 17.000153 8.500076 M 26.000336 8.500076 L 31.999878 8.500076 M 33.000092 8.500076 L 34.000305 8.500076 M 34.999649 8.500076 L 37.000076 8.500076 M 41.000061 8.500076 L 42.000275 8.500076 M 46.000259 8.500076 L 46.999603 8.500076 M 47.999817 8.500076 L 50.999588 8.500076 M 51.999802 8.500076 L 53.000015 8.500076 M 3.999985 9.50029 L 5.000198 9.50029 M 10.000397 9.50029 L 10.999741 9.50029 M 13.000168 9.50029 L 15.999939 9.50029 M 17.000153 9.50029 L 19.999924 9.50029 M 22.999695 9.50029 L 23.999908 9.50029 M 26.000336 9.50029 L 26.99968 9.50029 M 30.00032 9.50029 L 30.999664 9.50029 M 34.000305 9.50029 L 37.000076 9.50029 M 38.00029 9.50029 L 39.999847 9.50029 M 42.000275 9.50029 L 42.999619 9.50029 M 46.000259 9.50029 L 46.999603 9.50029 M 51.999802 9.50029 L 53.000015 9.50029 M 3.999985 10.499634 L 10.999741 10.499634 M 11.999954 10.499634 L 13.000168 10.499634 M 14.000381 10.499634 L 14.999725 10.499634 M 15.999939 10.499634 L 17.000153 10.499634 M 18.000366 10.499634 L 18.99971 10.499634 M 19.999924 10.499634 L 21.000137 10.499634 M 22.000351 10.499634 L 22.999695 10.499634 M 23.999908 10.499634 L 25.000122 10.499634 M 26.000336 10.499634 L 26.99968 10.499634 M 27.999893 10.499634 L 29.000107 10.499634 M 30.00032 10.499634 L 30.999664 10.499634 M 31.999878 10.499634 L 33.000092 10.499634 M 34.000305 10.499634 L 34.999649 10.499634 M 35.999863 10.499634 L 37.000076 10.499634 M 38.00029 10.499634 L 38.999634 10.499634 M 39.999847 10.499634 L 41.000061 10.499634 M 42.000275 10.499634 L 42.999619 10.499634 M 43.999832 10.499634 L 45.000046 10.499634 M 46.000259 10.499634 L 53.000015 10.499634 M 11.999954 11.499847 L 13.000168 11.499847 M 14.000381 11.499847 L 15.999939 11.499847 M 18.000366 11.499847 L 19.999924 11.499847 M 22.000351 11.499847 L 23.999908 11.499847 M 25.000122 11.499847 L 26.99968 11.499847 M 30.00032 11.499847 L 30.999664 11.499847 M 31.999878 11.499847 L 33.000092 11.499847 M 34.000305 11.499847 L 38.999634 11.499847 M 39.999847 11.499847 L 41.000061 11.499847 M 43.999832 11.499847 L 45.000046 11.499847 M 9.000183 12.500061 L 10.999741 12.500061 M 17.000153 12.500061 L 18.000366 12.500061 M 22.000351 12.500061 L 31.999878 12.500061 M 34.000305 12.500061 L 34.999649 12.500061 M 35.999863 12.500061 L 37.000076 12.500061 M 38.00029 12.500061 L 39.999847 12.500061 M 41.000061 12.500061 L 42.000275 12.500061 M 42.999619 12.500061 L 45.000046 12.500061 M 46.000259 12.500061 L 46.999603 12.500061 M 47.999817 12.500061 L 49.000031 12.500061 M 50.000244 12.500061 L 50.999588 12.500061 M 51.999802 12.500061 L 53.000015 12.500061 M 3.999985 13.500275 L 5.000198 13.500275 M 6.999756 13.500275 L 9.000183 13.500275 M 10.999741 13.500275 L 11.999954 13.500275 M 13.000168 13.500275 L 14.000381 13.500275 M 14.999725 13.500275 L 17.000153 13.500275 M 21.000137 13.500275 L 22.999695 13.500275 M 25.000122 13.500275 L 26.000336 13.500275 M 26.99968 13.500275 L 30.00032 13.500275 M 33.000092 13.500275 L 34.999649 13.500275 M 37.000076 13.500275 L 38.999634 13.500275 M 41.000061 13.500275 L 46.999603 13.500275 M 49.000031 13.500275 L 50.999588 13.500275 M 5.000198 14.499619 L 6.999756 14.499619 M 7.999969 14.499619 L 9.000183 14.499619 M 10.000397 14.499619 L 10.999741 14.499619 M 13.000168 14.499619 L 14.000381 14.499619 M 17.000153 14.499619 L 18.99971 14.499619 M 22.000351 14.499619 L 23.999908 14.499619 M 25.000122 14.499619 L 26.000336 14.499619 M 26.99968 14.499619 L 30.999664 14.499619 M 31.999878 14.499619 L 34.999649 14.499619 M 35.999863 14.499619 L 37.000076 14.499619 M 38.00029 14.499619 L 39.999847 14.499619 M 41.000061 14.499619 L 42.999619 14.499619 M 46.999603 14.499619 L 49.000031 14.499619 M 50.999588 14.499619 L 53.000015 14.499619 M 5.000198 15.499832 L 6.000412 15.499832 M 10.999741 15.499832 L 13.000168 15.499832 M 15.999939 15.499832 L 18.99971 15.499832 M 19.999924 15.499832 L 21.000137 15.499832 M 22.000351 15.499832 L 23.999908 15.499832 M 25.000122 15.499832 L 29.000107 15.499832 M 30.00032 15.499832 L 31.999878 15.499832 M 34.000305 15.499832 L 34.999649 15.499832 M 35.999863 15.499832 L 38.00029 15.499832 M 42.000275 15.499832 L 42.999619 15.499832 M 45.000046 15.499832 L 50.000244 15.499832 M 3.999985 16.500046 L 5.000198 16.500046 M 7.999969 16.500046 L 11.999954 16.500046 M 17.000153 16.500046 L 18.000366 16.500046 M 18.99971 16.500046 L 21.000137 16.500046 M 22.000351 16.500046 L 22.999695 16.500046 M 23.999908 16.500046 L 26.000336 16.500046 M 27.999893 16.500046 L 29.000107 16.500046 M 30.00032 16.500046 L 30.999664 16.500046 M 34.000305 16.500046 L 37.000076 16.500046 M 38.00029 16.500046 L 38.999634 16.500046 M 39.999847 16.500046 L 43.999832 16.500046 M 46.000259 16.500046 L 46.999603 16.500046 M 47.999817 16.500046 L 50.000244 16.500046 M 50.999588 16.500046 L 53.000015 16.500046 M 6.999756 17.500259 L 10.000397 17.500259 M 10.999741 17.500259 L 11.999954 17.500259 M 13.000168 17.500259 L 14.000381 17.500259 M 18.000366 17.500259 L 18.99971 17.500259 M 21.000137 17.500259 L 22.000351 17.500259 M 23.999908 17.500259 L 25.000122 17.500259 M 26.99968 17.500259 L 27.999893 17.500259 M 30.00032 17.500259 L 30.999664 17.500259 M 31.999878 17.500259 L 33.000092 17.500259 M 35.999863 17.500259 L 38.00029 17.500259 M 41.000061 17.500259 L 42.000275 17.500259 M 42.999619 17.500259 L 43.999832 17.500259 M 46.000259 17.500259 L 47.999817 17.500259 M 49.000031 17.500259 L 50.000244 17.500259 M 50.999588 17.500259 L 51.999802 17.500259 M 3.999985 18.499603 L 5.000198 18.499603 M 6.000412 18.499603 L 6.999756 18.499603 M 10.000397 18.499603 L 10.999741 18.499603 M 11.999954 18.499603 L 15.999939 18.499603 M 17.000153 18.499603 L 18.000366 18.499603 M 22.000351 18.499603 L 22.999695 18.499603 M 26.000336 18.499603 L 26.99968 18.499603 M 30.00032 18.499603 L 31.999878 18.499603 M 33.000092 18.499603 L 34.999649 18.499603 M 37.000076 18.499603 L 39.999847 18.499603 M 42.000275 18.499603 L 42.999619 18.499603 M 43.999832 18.499603 L 45.000046 18.499603 M 49.000031 18.499603 L 53.000015 18.499603 M 3.999985 19.499817 L 6.000412 19.499817 M 9.000183 19.499817 L 10.000397 19.499817 M 10.999741 19.499817 L 14.000381 19.499817 M 15.999939 19.499817 L 17.000153 19.499817 M 18.000366 19.499817 L 18.99971 19.499817 M 21.000137 19.499817 L 22.000351 19.499817 M 23.999908 19.499817 L 27.999893 19.499817 M 29.000107 19.499817 L 34.999649 19.499817 M 35.999863 19.499817 L 37.000076 19.499817 M 38.00029 19.499817 L 39.999847 19.499817 M 42.000275 19.499817 L 43.999832 19.499817 M 45.000046 19.499817 L 46.000259 19.499817 M 49.000031 19.499817 L 51.999802 19.499817 M 6.000412 20.500031 L 7.999969 20.500031 M 9.000183 20.500031 L 11.999954 20.500031 M 14.999725 20.500031 L 15.999939 20.500031 M 17.000153 20.500031 L 18.000366 20.500031 M 19.999924 20.500031 L 22.999695 20.500031 M 23.999908 20.500031 L 25.000122 20.500031 M 26.000336 20.500031 L 27.999893 20.500031 M 29.000107 20.500031 L 30.00032 20.500031 M 30.999664 20.500031 L 31.999878 20.500031 M 34.000305 20.500031 L 34.999649 20.500031 M 35.999863 20.500031 L 37.000076 20.500031 M 39.999847 20.500031 L 42.000275 20.500031 M 42.999619 20.500031 L 43.999832 20.500031 M 46.000259 20.500031 L 47.999817 20.500031 M 49.000031 20.500031 L 51.999802 20.500031 M 3.999985 21.500244 L 5.000198 21.500244 M 7.999969 21.500244 L 9.000183 21.500244 M 11.999954 21.500244 L 18.99971 21.500244 M 19.999924 21.500244 L 22.000351 21.500244 M 22.999695 21.500244 L 23.999908 21.500244 M 25.000122 21.500244 L 27.999893 21.500244 M 31.999878 21.500244 L 34.000305 21.500244 M 34.999649 21.500244 L 37.000076 21.500244 M 39.999847 21.500244 L 41.000061 21.500244 M 42.999619 21.500244 L 46.999603 21.500244 M 47.999817 21.500244 L 50.000244 21.500244 M 3.999985 22.499588 L 5.000198 22.499588 M 6.999756 22.499588 L 7.999969 22.499588 M 10.000397 22.499588 L 14.000381 22.499588 M 18.99971 22.499588 L 19.999924 22.499588 M 21.000137 22.499588 L 22.000351 22.499588 M 22.999695 22.499588 L 25.000122 22.499588 M 26.99968 22.499588 L 30.00032 22.499588 M 33.000092 22.499588 L 34.999649 22.499588 M 35.999863 22.499588 L 37.000076 22.499588 M 38.00029 22.499588 L 38.999634 22.499588 M 39.999847 22.499588 L 41.000061 22.499588 M 42.000275 22.499588 L 43.999832 22.499588 M 50.000244 22.499588 L 53.000015 22.499588 M 3.999985 23.499802 L 6.000412 23.499802 M 6.999756 23.499802 L 7.999969 23.499802 M 14.000381 23.499802 L 14.999725 23.499802 M 18.000366 23.499802 L 18.99971 23.499802 M 19.999924 23.499802 L 21.000137 23.499802 M 22.000351 23.499802 L 22.999695 23.499802 M 23.999908 23.499802 L 25.000122 23.499802 M 29.000107 23.499802 L 30.00032 23.499802 M 30.999664 23.499802 L 31.999878 23.499802 M 33.000092 23.499802 L 34.000305 23.499802 M 34.999649 23.499802 L 35.999863 23.499802 M 38.00029 23.499802 L 38.999634 23.499802 M 41.000061 23.499802 L 42.000275 23.499802 M 42.999619 23.499802 L 45.000046 23.499802 M 46.999603 23.499802 L 50.000244 23.499802 M 51.999802 23.499802 L 53.000015 23.499802 M 5.000198 24.500015 L 6.000412 24.500015 M 7.999969 24.500015 L 9.000183 24.500015 M 10.000397 24.500015 L 10.999741 24.500015 M 11.999954 24.500015 L 14.000381 24.500015 M 17.000153 24.500015 L 18.99971 24.500015 M 21.000137 24.500015 L 22.999695 24.500015 M 23.999908 24.500015 L 25.000122 24.500015 M 26.99968 24.500015 L 27.999893 24.500015 M 30.00032 24.500015 L 33.000092 24.500015 M 34.999649 24.500015 L 35.999863 24.500015 M 37.000076 24.500015 L 38.00029 24.500015 M 38.999634 24.500015 L 42.000275 24.500015 M 42.999619 24.500015 L 45.000046 24.500015 M 50.000244 24.500015 L 53.000015 24.500015 M 3.999985 25.500229 L 5.000198 25.500229 M 6.999756 25.500229 L 7.999969 25.500229 M 9.000183 25.500229 L 10.000397 25.500229 M 11.999954 25.500229 L 14.000381 25.500229 M 18.99971 25.500229 L 21.000137 25.500229 M 22.000351 25.500229 L 22.999695 25.500229 M 23.999908 25.500229 L 25.000122 25.500229 M 26.000336 25.500229 L 26.99968 25.500229 M 29.000107 25.500229 L 31.999878 25.500229 M 33.000092 25.500229 L 34.999649 25.500229 M 37.000076 25.500229 L 45.000046 25.500229 M 46.000259 25.500229 L 46.999603 25.500229 M 47.999817 25.500229 L 50.000244 25.500229 M 5.000198 26.499573 L 6.000412 26.499573 M 7.999969 26.499573 L 13.000168 26.499573 M 14.000381 26.499573 L 17.000153 26.499573 M 18.000366 26.499573 L 21.000137 26.499573 M 22.000351 26.499573 L 22.999695 26.499573 M 23.999908 26.499573 L 33.000092 26.499573 M 34.000305 26.499573 L 35.999863 26.499573 M 37.000076 26.499573 L 38.999634 26.499573 M 41.000061 26.499573 L 42.999619 26.499573 M 43.999832 26.499573 L 49.000031 26.499573 M 50.000244 26.499573 L 53.000015 26.499573 M 3.999985 27.499786 L 6.999756 27.499786 M 7.999969 27.499786 L 9.000183 27.499786 M 11.999954 27.499786 L 15.999939 27.499786 M 17.000153 27.499786 L 18.000366 27.499786 M 18.99971 27.499786 L 19.999924 27.499786 M 21.000137 27.499786 L 22.999695 27.499786 M 23.999908 27.499786 L 25.000122 27.499786 M 26.000336 27.499786 L 26.99968 27.499786 M 30.00032 27.499786 L 31.999878 27.499786 M 34.000305 27.499786 L 34.999649 27.499786 M 37.000076 27.499786 L 38.999634 27.499786 M 41.000061 27.499786 L 45.000046 27.499786 M 47.999817 27.499786 L 50.000244 27.499786 M 50.999588 27.499786 L 51.999802 27.499786 M 3.999985 28.5 L 5.000198 28.5 M 6.999756 28.5 L 9.000183 28.5 M 10.000397 28.5 L 10.999741 28.5 M 11.999954 28.5 L 14.000381 28.5 M 17.000153 28.5 L 19.999924 28.5 M 21.000137 28.5 L 22.000351 28.5 M 22.999695 28.5 L 23.999908 28.5 M 26.000336 28.5 L 26.99968 28.5 M 27.999893 28.5 L 29.000107 28.5 M 30.00032 28.5 L 31.999878 28.5 M 33.000092 28.5 L 34.000305 28.5 M 39.999847 28.5 L 42.000275 28.5 M 42.999619 28.5 L 45.000046 28.5 M 46.000259 28.5 L 46.999603 28.5 M 47.999817 28.5 L 51.999802 28.5 M 5.000198 29.500214 L 9.000183 29.500214 M 11.999954 29.500214 L 14.000381 29.500214 M 15.999939 29.500214 L 18.000366 29.500214 M 18.99971 29.500214 L 21.000137 29.500214 M 22.000351 29.500214 L 25.000122 29.500214 M 26.000336 29.500214 L 26.99968 29.500214 M 30.00032 29.500214 L 34.999649 29.500214 M 35.999863 29.500214 L 38.00029 29.500214 M 38.999634 29.500214 L 42.000275 29.500214 M 43.999832 29.500214 L 45.000046 29.500214 M 47.999817 29.500214 L 49.000031 29.500214 M 3.999985 30.500427 L 5.000198 30.500427 M 6.999756 30.500427 L 13.000168 30.500427 M 14.000381 30.500427 L 17.000153 30.500427 M 18.000366 30.500427 L 18.99971 30.500427 M 21.000137 30.500427 L 22.999695 30.500427 M 23.999908 30.500427 L 25.000122 30.500427 M 26.000336 30.500427 L 37.000076 30.500427 M 38.00029 30.500427 L 38.999634 30.500427 M 41.000061 30.500427 L 50.000244 30.500427 M 50.999588 30.500427 L 53.000015 30.500427 M 5.000198 31.499771 L 6.999756 31.499771 M 10.999741 31.499771 L 11.999954 31.499771 M 15.999939 31.499771 L 23.999908 31.499771 M 26.000336 31.499771 L 26.99968 31.499771 M 27.999893 31.499771 L 30.00032 31.499771 M 30.999664 31.499771 L 31.999878 31.499771 M 37.000076 31.499771 L 38.999634 31.499771 M 41.000061 31.499771 L 42.000275 31.499771 M 42.999619 31.499771 L 43.999832 31.499771 M 47.999817 31.499771 L 53.000015 31.499771 M 3.999985 32.499985 L 5.000198 32.499985 M 6.999756 32.499985 L 9.000183 32.499985 M 10.000397 32.499985 L 10.999741 32.499985 M 11.999954 32.499985 L 13.000168 32.499985 M 15.999939 32.499985 L 19.999924 32.499985 M 22.000351 32.499985 L 22.999695 32.499985 M 23.999908 32.499985 L 25.000122 32.499985 M 26.99968 32.499985 L 30.00032 32.499985 M 31.999878 32.499985 L 33.000092 32.499985 M 34.999649 32.499985 L 35.999863 32.499985 M 39.999847 32.499985 L 42.000275 32.499985 M 42.999619 32.499985 L 45.000046 32.499985 M 47.999817 32.499985 L 49.000031 32.499985 M 50.000244 32.499985 L 53.000015 32.499985 M 5.000198 33.500198 L 6.000412 33.500198 M 6.999756 33.500198 L 7.999969 33.500198 M 10.999741 33.500198 L 11.999954 33.500198 M 14.000381 33.500198 L 14.999725 33.500198 M 15.999939 33.500198 L 17.000153 33.500198 M 18.000366 33.500198 L 18.99971 33.500198 M 19.999924 33.500198 L 21.000137 33.500198 M 22.000351 33.500198 L 27.999893 33.500198 M 29.000107 33.500198 L 30.00032 33.500198 M 30.999664 33.500198 L 33.000092 33.500198 M 34.000305 33.500198 L 34.999649 33.500198 M 37.000076 33.500198 L 38.00029 33.500198 M 39.999847 33.500198 L 42.000275 33.500198 M 43.999832 33.500198 L 47.999817 33.500198 M 49.000031 33.500198 L 50.000244 33.500198 M 3.999985 34.500412 L 6.000412 34.500412 M 6.999756 34.500412 L 9.000183 34.500412 M 10.000397 34.500412 L 10.999741 34.500412 M 11.999954 34.500412 L 14.000381 34.500412 M 18.99971 34.500412 L 19.999924 34.500412 M 23.999908 34.500412 L 26.000336 34.500412 M 30.00032 34.500412 L 30.999664 34.500412 M 33.000092 34.500412 L 34.000305 34.500412 M 35.999863 34.500412 L 37.000076 34.500412 M 38.999634 34.500412 L 41.000061 34.500412 M 43.999832 34.500412 L 45.000046 34.500412 M 46.000259 34.500412 L 46.999603 34.500412 M 47.999817 34.500412 L 49.000031 34.500412 M 50.000244 34.500412 L 50.999588 34.500412 M 51.999802 34.500412 L 53.000015 34.500412 M 3.999985 35.499756 L 6.999756 35.499756 M 14.000381 35.499756 L 17.000153 35.499756 M 18.000366 35.499756 L 21.000137 35.499756 M 22.000351 35.499756 L 22.999695 35.499756 M 23.999908 35.499756 L 27.999893 35.499756 M 30.00032 35.499756 L 31.999878 35.499756 M 33.000092 35.499756 L 34.000305 35.499756 M 34.999649 35.499756 L 35.999863 35.499756 M 38.999634 35.499756 L 42.000275 35.499756 M 42.999619 35.499756 L 45.000046 35.499756 M 46.999603 35.499756 L 47.999817 35.499756 M 49.000031 35.499756 L 50.000244 35.499756 M 51.999802 35.499756 L 53.000015 35.499756 M 5.000198 36.499969 L 6.999756 36.499969 M 7.999969 36.499969 L 9.000183 36.499969 M 10.000397 36.499969 L 10.999741 36.499969 M 14.999725 36.499969 L 18.99971 36.499969 M 19.999924 36.499969 L 22.000351 36.499969 M 22.999695 36.499969 L 23.999908 36.499969 M 26.000336 36.499969 L 29.000107 36.499969 M 30.999664 36.499969 L 31.999878 36.499969 M 33.000092 36.499969 L 34.000305 36.499969 M 37.000076 36.499969 L 38.999634 36.499969 M 39.999847 36.499969 L 41.000061 36.499969 M 42.999619 36.499969 L 46.999603 36.499969 M 47.999817 36.499969 L 51.999802 36.499969 M 5.000198 37.500183 L 9.000183 37.500183 M 14.000381 37.500183 L 17.000153 37.500183 M 18.99971 37.500183 L 22.999695 37.500183 M 23.999908 37.500183 L 25.000122 37.500183 M 26.99968 37.500183 L 27.999893 37.500183 M 29.000107 37.500183 L 30.00032 37.500183 M 30.999664 37.500183 L 34.000305 37.500183 M 34.999649 37.500183 L 45.000046 37.500183 M 46.000259 37.500183 L 49.000031 37.500183 M 50.000244 37.500183 L 51.999802 37.500183 M 3.999985 38.500397 L 6.000412 38.500397 M 6.999756 38.500397 L 10.999741 38.500397 M 11.999954 38.500397 L 13.000168 38.500397 M 15.999939 38.500397 L 18.99971 38.500397 M 19.999924 38.500397 L 21.000137 38.500397 M 22.999695 38.500397 L 25.000122 38.500397 M 26.99968 38.500397 L 27.999893 38.500397 M 30.00032 38.500397 L 31.999878 38.500397 M 33.000092 38.500397 L 34.000305 38.500397 M 37.000076 38.500397 L 38.999634 38.500397 M 39.999847 38.500397 L 41.000061 38.500397 M 42.000275 38.500397 L 43.999832 38.500397 M 45.000046 38.500397 L 49.000031 38.500397 M 50.999588 38.500397 L 53.000015 38.500397 M 3.999985 39.499741 L 6.999756 39.499741 M 9.000183 39.499741 L 10.000397 39.499741 M 10.999741 39.499741 L 11.999954 39.499741 M 15.999939 39.499741 L 18.000366 39.499741 M 18.99971 39.499741 L 22.999695 39.499741 M 25.000122 39.499741 L 26.99968 39.499741 M 29.000107 39.499741 L 30.00032 39.499741 M 34.000305 39.499741 L 34.999649 39.499741 M 35.999863 39.499741 L 38.999634 39.499741 M 42.999619 39.499741 L 45.000046 39.499741 M 49.000031 39.499741 L 50.000244 39.499741 M 50.999588 39.499741 L 53.000015 39.499741 M 6.000412 40.499954 L 6.999756 40.499954 M 7.999969 40.499954 L 9.000183 40.499954 M 10.000397 40.499954 L 14.000381 40.499954 M 14.999725 40.499954 L 17.000153 40.499954 M 18.99971 40.499954 L 21.000137 40.499954 M 23.999908 40.499954 L 25.000122 40.499954 M 26.99968 40.499954 L 30.00032 40.499954 M 33.000092 40.499954 L 34.999649 40.499954 M 35.999863 40.499954 L 38.999634 40.499954 M 39.999847 40.499954 L 41.000061 40.499954 M 42.000275 40.499954 L 43.999832 40.499954 M 45.000046 40.499954 L 46.000259 40.499954 M 46.999603 40.499954 L 47.999817 40.499954 M 3.999985 41.500168 L 5.000198 41.500168 M 6.999756 41.500168 L 7.999969 41.500168 M 9.000183 41.500168 L 10.000397 41.500168 M 10.999741 41.500168 L 13.000168 41.500168 M 17.000153 41.500168 L 18.000366 41.500168 M 18.99971 41.500168 L 21.000137 41.500168 M 22.000351 41.500168 L 22.999695 41.500168 M 23.999908 41.500168 L 25.000122 41.500168 M 26.000336 41.500168 L 27.999893 41.500168 M 30.999664 41.500168 L 31.999878 41.500168 M 33.000092 41.500168 L 35.999863 41.500168 M 41.000061 41.500168 L 42.000275 41.500168 M 42.999619 41.500168 L 43.999832 41.500168 M 45.000046 41.500168 L 47.999817 41.500168 M 5.000198 42.500381 L 6.000412 42.500381 M 9.000183 42.500381 L 10.999741 42.500381 M 13.000168 42.500381 L 14.999725 42.500381 M 15.999939 42.500381 L 18.99971 42.500381 M 22.000351 42.500381 L 22.999695 42.500381 M 25.000122 42.500381 L 26.000336 42.500381 M 26.99968 42.500381 L 27.999893 42.500381 M 29.000107 42.500381 L 30.00032 42.500381 M 30.999664 42.500381 L 31.999878 42.500381 M 34.999649 42.500381 L 37.000076 42.500381 M 38.00029 42.500381 L 39.999847 42.500381 M 42.000275 42.500381 L 42.999619 42.500381 M 45.000046 42.500381 L 47.999817 42.500381 M 50.999588 42.500381 L 53.000015 42.500381 M 5.000198 43.499725 L 7.999969 43.499725 M 14.999725 43.499725 L 15.999939 43.499725 M 18.000366 43.499725 L 21.000137 43.499725 M 22.000351 43.499725 L 22.999695 43.499725 M 23.999908 43.499725 L 25.000122 43.499725 M 26.000336 43.499725 L 29.000107 43.499725 M 30.00032 43.499725 L 34.000305 43.499725 M 37.000076 43.499725 L 38.00029 43.499725 M 41.000061 43.499725 L 42.000275 43.499725 M 42.999619 43.499725 L 45.000046 43.499725 M 47.999817 43.499725 L 50.999588 43.499725 M 51.999802 43.499725 L 53.000015 43.499725 M 3.999985 44.499939 L 6.999756 44.499939 M 10.000397 44.499939 L 11.999954 44.499939 M 15.999939 44.499939 L 17.000153 44.499939 M 18.99971 44.499939 L 19.999924 44.499939 M 22.000351 44.499939 L 22.999695 44.499939 M 25.000122 44.499939 L 30.999664 44.499939 M 31.999878 44.499939 L 34.000305 44.499939 M 34.999649 44.499939 L 35.999863 44.499939 M 37.000076 44.499939 L 41.000061 44.499939 M 42.000275 44.499939 L 49.000031 44.499939 M 50.000244 44.499939 L 53.000015 44.499939 M 11.999954 45.500153 L 13.000168 45.500153 M 18.000366 45.500153 L 18.99971 45.500153 M 19.999924 45.500153 L 23.999908 45.500153 M 25.000122 45.500153 L 26.99968 45.500153 M 30.00032 45.500153 L 30.999664 45.500153 M 31.999878 45.500153 L 35.999863 45.500153 M 37.000076 45.500153 L 45.000046 45.500153 M 47.999817 45.500153 L 49.000031 45.500153 M 50.000244 45.500153 L 51.999802 45.500153 M 3.999985 46.500366 L 10.999741 46.500366 M 13.000168 46.500366 L 15.999939 46.500366 M 17.000153 46.500366 L 18.000366 46.500366 M 19.999924 46.500366 L 21.000137 46.500366 M 25.000122 46.500366 L 26.99968 46.500366 M 27.999893 46.500366 L 29.000107 46.500366 M 30.00032 46.500366 L 31.999878 46.500366 M 34.000305 46.500366 L 34.999649 46.500366 M 35.999863 46.500366 L 38.999634 46.500366 M 39.999847 46.500366 L 42.999619 46.500366 M 43.999832 46.500366 L 45.000046 46.500366 M 46.000259 46.500366 L 46.999603 46.500366 M 47.999817 46.500366 L 50.999588 46.500366 M 51.999802 46.500366 L 53.000015 46.500366 M 3.999985 47.49971 L 5.000198 47.49971 M 10.000397 47.49971 L 10.999741 47.49971 M 11.999954 47.49971 L 13.000168 47.49971 M 18.99971 47.49971 L 22.000351 47.49971 M 23.999908 47.49971 L 26.99968 47.49971 M 30.00032 47.49971 L 30.999664 47.49971 M 33.000092 47.49971 L 34.999649 47.49971 M 35.999863 47.49971 L 38.999634 47.49971 M 42.000275 47.49971 L 45.000046 47.49971 M 47.999817 47.49971 L 50.000244 47.49971 M 50.999588 47.49971 L 51.999802 47.49971 M 3.999985 48.499924 L 5.000198 48.499924 M 6.000412 48.499924 L 9.000183 48.499924 M 10.000397 48.499924 L 10.999741 48.499924 M 13.000168 48.499924 L 14.000381 48.499924 M 17.000153 48.499924 L 18.99971 48.499924 M 19.999924 48.499924 L 21.000137 48.499924 M 22.000351 48.499924 L 23.999908 48.499924 M 26.000336 48.499924 L 31.999878 48.499924 M 33.000092 48.499924 L 34.999649 48.499924 M 38.00029 48.499924 L 41.000061 48.499924 M 43.999832 48.499924 L 49.000031 48.499924 M 50.000244 48.499924 L 50.999588 48.499924 M 51.999802 48.499924 L 53.000015 48.499924 M 3.999985 49.500137 L 5.000198 49.500137 M 6.000412 49.500137 L 9.000183 49.500137 M 10.000397 49.500137 L 10.999741 49.500137 M 14.000381 49.500137 L 14.999725 49.500137 M 17.000153 49.500137 L 18.000366 49.500137 M 19.999924 49.500137 L 21.000137 49.500137 M 23.999908 49.500137 L 25.000122 49.500137 M 26.000336 49.500137 L 29.000107 49.500137 M 30.00032 49.500137 L 30.999664 49.500137 M 33.000092 49.500137 L 34.999649 49.500137 M 37.000076 49.500137 L 38.999634 49.500137 M 39.999847 49.500137 L 42.999619 49.500137 M 43.999832 49.500137 L 46.000259 49.500137 M 50.000244 49.500137 L 50.999588 49.500137 M 51.999802 49.500137 L 53.000015 49.500137 M 3.999985 50.500351 L 5.000198 50.500351 M 6.000412 50.500351 L 9.000183 50.500351 M 10.000397 50.500351 L 10.999741 50.500351 M 13.000168 50.500351 L 18.000366 50.500351 M 21.000137 50.500351 L 22.000351 50.500351 M 23.999908 50.500351 L 25.000122 50.500351 M 27.999893 50.500351 L 29.000107 50.500351 M 30.999664 50.500351 L 31.999878 50.500351 M 33.000092 50.500351 L 34.000305 50.500351 M 38.00029 50.500351 L 43.999832 50.500351 M 45.000046 50.500351 L 47.999817 50.500351 M 49.000031 50.500351 L 50.000244 50.500351 M 50.999588 50.500351 L 53.000015 50.500351 M 3.999985 51.499695 L 5.000198 51.499695 M 10.000397 51.499695 L 10.999741 51.499695 M 13.000168 51.499695 L 14.999725 51.499695 M 18.99971 51.499695 L 22.999695 51.499695 M 23.999908 51.499695 L 26.000336 51.499695 M 27.999893 51.499695 L 29.000107 51.499695 M 30.00032 51.499695 L 30.999664 51.499695 M 34.999649 51.499695 L 37.000076 51.499695 M 41.000061 51.499695 L 42.000275 51.499695 M 45.000046 51.499695 L 50.000244 51.499695 M 51.999802 51.499695 L 53.000015 51.499695 M 3.999985 52.499908 L 10.999741 52.499908 M 13.000168 52.499908 L 14.000381 52.499908 M 14.999725 52.499908 L 15.999939 52.499908 M 18.000366 52.499908 L 22.000351 52.499908 M 25.000122 52.499908 L 31.999878 52.499908 M 34.000305 52.499908 L 34.999649 52.499908 M 35.999863 52.499908 L 37.000076 52.499908 M 39.999847 52.499908 L 42.999619 52.499908 M 43.999832 52.499908 L 46.000259 52.499908 M 47.999817 52.499908 L 50.000244 52.499908 M 51.999802 52.499908 L 53.000015 52.499908 " transform="matrix(4.491228,0,0,4.491228,0,0)"/>
<path style="fill-rule:nonzero;fill:rgb(0%,0%,0%);fill-opacity:1;stroke-width:9.482456;stroke-linecap:butt;stroke-linejoin:miter;stroke:rgb(100%,100%,100%);stroke-opacity:1;stroke-miterlimit:4;" d="M 211.085938 211.085938 L 300.914062 211.085938 L 300.914062 300.914062 L 211.085938 300.914062 Z M 211.085938 211.085938 " transform="matrix(0.5,0,0,0.5,0,0)"/>
<path style=" stroke:none;fill-rule:nonzero;fill:rgb(100%,100%,100%);fill-opacity:1;" d="M 130.289062 119.289062 L 125.722656 119.289062 L 117.417969 135.121094 L 120.992188 137.011719 L 128.011719 123.640625 L 135.015625 137.015625 L 138.582031 135.117188 Z M 130.289062 119.289062 "/>
</g>
</svg>
